<svg width="11" height="13" viewBox="0 0 11 13" fill="none" xmlns="http://www.w3.org/2000/svg">
<path d="M0.690977 -0.000128461C0.309272 -0.000128461 -0.000114441 0.309257 -0.000114441 0.690963C-0.000114441 0.788682 0.0206994 0.881463 0.0573883 0.965424C0.120536 1.10936 0.220724 1.40604 0.220724 1.66569V11.8578C0.220724 12.1174 0.43098 12.3291 0.690977 12.3291C0.950622 12.3291 1.16229 12.1174 1.16229 11.8578V1.66569C1.16229 1.40604 1.26212 1.10936 1.32421 0.965424C1.36125 0.881463 1.38172 0.788682 1.38172 0.690963C1.38277 0.310316 1.07268 -0.000128461 0.690977 -0.000128461Z" fill="#CCCCCC"/>
<path d="M8.36076 4.81558C8.26551 4.9454 8.26657 5.12002 8.36358 5.2382C8.8804 5.86474 9.41239 6.37874 9.91475 6.78866C10.3575 7.15026 9.78034 7.41379 9.65087 7.46882C7.01562 8.59453 4.38249 6.23939 1.749 6.95659V1.39681C4.38672 0.679257 7.02409 3.04463 9.66181 1.90445C9.79057 1.84942 9.90805 1.86283 9.96484 1.94961C10.0213 2.03569 10.0072 2.18385 9.92851 2.32885C9.40604 3.28699 8.88323 4.09909 8.36076 4.81558Z" fill="#CCCCCC"/>
</svg>
